/* XPM */
static char * red_xpm[] = {
"17 17 2 1",
" 	c #F7DE0C302081",
".	c #F7DEFBEEF7DE",
"                 ",
"                 ",
"         ..      ",
"        ...      ",
"      .....      ",
"        ...      ",
"        ...      ",
"        ...      ",
"        ...      ",
"        ...      ",
"        ...      ",
"        ...      ",
"        ...      ",
"        ...      ",
"        ...      ",
"                 ",
"                 "};
