/* XPM */
static char *navy[] = {
/* width height num_colors chars_per_pixel */
"    17    17        2            1",
/* colors */
". c #ffffff",
"# c #16247b",
/* pixels */
"#################",
"#######.....#####",
"#####...#....####",
"#####...##...####",
"####...##########",
"####.......######",
"####....#...#####",
"####...###...####",
"####...###...####",
"####...###...####",
"####...###...####",
"#####..###...####",
"#####...#...#####",
"######.....######",
"#################",
"#################",
"#################"
};
