/* XPM */
static char *brown[] = {
/* width height num_colors chars_per_pixel */
"    17    17        2            1",
/* colors */
". c #f7f1f1",
"# c #5a3808",
/* pixels */
"#################",
"#################",
"######........###",
"###########...###",
"###########...###",
"##########...####",
"##########...####",
"##########...####",
"##########...####",
"#########...#####",
"#########...#####",
"#########...#####",
"#########...#####",
"########...######",
"########...######",
"#################",
"#################"
};
