/* XPM */
static char * icon_numeric_xpm[] = {
"32 32 3 1",
" 	c None",
".	c #B4B4B4",
"+	c #FFFFFF",
"                                ",
"                                ",
"                                ",
"                    ..........  ",
"                    .++++++++.  ",
"                    ........+.  ",
"                           .+.  ",
" ....                      .+.  ",
" .++.                      .+.  ",
" ..+.               ........+.  ",
"  .+.               .++++++++.  ",
"  .+.               ........+.  ",
"  .+.                      .+.  ",
"  .+.   ..........         .+.  ",
"  .+.   .++++++++.         .+.  ",
"  .+.   ........+.  ........+.  ",
"  .+.          .+.  .++++++++.  ",
"  .+.          .+.  ..........  ",
"  .+.          .+.              ",
"  .+.   ........+.              ",
"  ...   .++++++++.              ",
"        .+..                    ",
"        .+.                     ",
"        .+.                     ",
"        .+.                     ",
"        .+........              ",
"        .++++++++.              ",
"        ..........              ",
"                                ",
"                                ",
"                                ",
"                                "};
