/* XPM */
static char * icon_down_small_xpm[] = {
"12 9 3 1",
" 	c None",
".	c #B4B4B4",
"+	c #FFFFFF",
"............",
".++++++++++.",
".++++++++++.",
".++++++++++.",
" .++++++++. ",
"  .++++++.  ",
"   .++++.   ",
"    .++.    ",
"     ..     "};
