/* XPM */
static char * icon_right_small_xpm[] = {
"9 12 3 1",
" 	c None",
".	c #B4B4B4",
"+	c #FFFFFF",
"....     ",
".+++.    ",
".++++.   ",
".+++++.  ",
".++++++. ",
".+++++++.",
".+++++++.",
".++++++. ",
".+++++.  ",
".++++.   ",
".+++.    ",
"....     "};
