/* XPM */
static char *orange[] = {
/* width height num_colors chars_per_pixel */
"    17    17        2            1",
/* colors */
". c #f87307",
"# c #f7f1f1",
/* pixels */
".................",
".................",
"......#####......",
".....###.###.....",
"....###...###....",
"....###...###....",
"..........###....",
".........###.....",
".......####......",
".........###.....",
"..........###....",
"....###...###....",
"....###...###....",
".....###.###.....",
"......#####......",
".................",
"................."
};
