/* XPM */
static char * blue_xpm[] = {
"17 17 2 1",
" 	c #08201040F7DE",
".	c #EFBEF7DEF7DE",
"                 ",
"                 ",
"       .....     ",
"      ... ...    ",
"     ...   ...   ",
"     ...   ...   ",
"     ...   ...   ",
"          ....   ",
"          ...    ",
"         ...     ",
"        ...      ",
"       ...       ",
"      ...        ",
"     ...         ",
"     .........   ",
"                 ",
"                 "};
