/* XPM */
static char * application_small_xpm[] = {
"32 32 177 2",
"  	c None",
". 	c #2F3200",
"+ 	c #505501",
"@ 	c #6D7402",
"# 	c #8B9302",
"$ 	c #939D03",
"% 	c #757C02",
"& 	c #5A5F01",
"* 	c #3B3F01",
"= 	c #343801",
"- 	c #919A03",
"; 	c #E2F004",
"> 	c #E7F504",
", 	c #B5BF03",
"' 	c #464A01",
") 	c #AEB0A3",
"! 	c #696F02",
"~ 	c #E3F104",
"{ 	c #9DA603",
"] 	c #2C3000",
"^ 	c #F5DFA6",
"/ 	c #909802",
"( 	c #C2CD03",
"_ 	c #2B2E00",
": 	c #F8DF9D",
"< 	c #7C8402",
"[ 	c #E6B704",
"} 	c #E58905",
"| 	c #E55F05",
"1 	c #E44E05",
"2 	c #E56805",
"3 	c #E69904",
"4 	c #E6EC03",
"5 	c #BAC403",
"6 	c #262802",
"7 	c #FFE59E",
"8 	c #E8CF92",
"9 	c #4C5101",
"0 	c #E6DC04",
"a 	c #E40806",
"b 	c #E41806",
"c 	c #E59604",
"d 	c #828A02",
"e 	c #F2BB45",
"f 	c #544217",
"g 	c #E2B142",
"h 	c #2D2F02",
"i 	c #C4D003",
"j 	c #E7D704",
"k 	c #E41606",
"l 	c #E31306",
"m 	c #E57204",
"n 	c #E5A104",
"o 	c #E6AD04",
"p 	c #E58B05",
"q 	c #E42E05",
"r 	c #E46B04",
"s 	c #E4F204",
"t 	c #3F4301",
"u 	c #ECA000",
"v 	c #2C1E00",
"w 	c #DD9700",
"x 	c #E44F05",
"y 	c #E42205",
"z 	c #E6DD04",
"A 	c #E7F103",
"B 	c #E55D05",
"C 	c #8B9402",
"D 	c #8D9603",
"E 	c #E6B804",
"F 	c #E6AC04",
"G 	c #E6EB03",
"H 	c #E41F05",
"I 	c #E46105",
"J 	c #D4E104",
"K 	c #323402",
"L 	c #2B1E00",
"M 	c #DD9800",
"N 	c #282A02",
"O 	c #CFDB04",
"P 	c #E58305",
"Q 	c #E40F06",
"R 	c #E6ED03",
"S 	c #E55605",
"T 	c #E42A05",
"U 	c #434701",
"V 	c #2A1D00",
"W 	c #DE9800",
"X 	c #2F3000",
"Y 	c #E5F304",
"Z 	c #E55B05",
"` 	c #E41106",
" .	c #E44305",
"..	c #505401",
"+.	c #373C00",
"@.	c #E43D05",
"#.	c #E6EF03",
"$.	c #575D01",
"%.	c #291C00",
"&.	c #E09A00",
"*.	c #2D3000",
"=.	c #E6F404",
"-.	c #E43605",
";.	c #515601",
">.	c #E19A00",
",.	c #242602",
"'.	c #E41A06",
").	c #E7F403",
"!.	c #98A203",
"~.	c #E6AB04",
"{.	c #E6E603",
"].	c #E57E04",
"^.	c #DBE904",
"/.	c #333502",
"(.	c #281B00",
"_.	c #E39B00",
":.	c #525801",
"<.	c #E41906",
"[.	c #E6B604",
"}.	c #E45705",
"|.	c #E30806",
"1.	c #E7D604",
"2.	c #939C03",
"3.	c #271B00",
"4.	c #E49C00",
"5.	c #2E3202",
"6.	c #E30A06",
"7.	c #E54C05",
"8.	c #E56905",
"9.	c #E57704",
"0.	c #E32505",
"a.	c #E40C06",
"b.	c #E69A04",
"c.	c #3C3E01",
"d.	c #E6E403",
"e.	c #E56D04",
"f.	c #E30B06",
"g.	c #E43F05",
"h.	c #E6C004",
"i.	c #99A203",
"j.	c #261A00",
"k.	c #969E03",
"l.	c #E7E903",
"m.	c #E6C204",
"n.	c #E59704",
"o.	c #E68805",
"p.	c #E5A004",
"q.	c #CBD704",
"r.	c #2C2F00",
"s.	c #2F3202",
"t.	c #AEB903",
"u.	c #353901",
"v.	c #251900",
"w.	c #E59D00",
"x.	c #858E02",
"y.	c #BAC603",
"z.	c #2A2C00",
"A.	c #241900",
"B.	c #E69D00",
"C.	c #404401",
"D.	c #B6C103",
"E.	c #D1DE04",
"F.	c #5B6001",
"G.	c #1A1C00",
"H.	c #5E6302",
"I.	c #8C9502",
"J.	c #ACB603",
"K.	c #B3BD03",
"L.	c #959E02",
"M.	c #6C7302",
"N.	c #444801",
"O.	c #323702",
"P.	c #231800",
"Q.	c #E79E00",
"R.	c #221700",
"S.	c #E99F00",
"T.	c #EAA100",
"                                                                ",
"                                                                ",
"                                                                ",
"                  . + @ # $ % & *                               ",
"              = - ; > > > > > > > , '                 )         ",
"            ! ~ > > > > > > > > > > > { ]             ^         ",
"          / > > > > > > > > > > > > > > ( _           :         ",
"        < > > > > > [ } | 1 2 3 4 > > > > 5 6         7 8       ",
"      9 > > > > 0 1 a a a a a a b c > > > > d       e f g       ",
"    h i > > > j k a l m n o p q a a r > > > s t     u v w       ",
"    9 > > > > x a y z > > > > A B a a [ > > > C     u v w       ",
"    D > > > E a a F > > > > > > G H a I > > > J K   u L M       ",
"  N O > > > P a Q R > > > > > > > S a T > > > > U   u V W       ",
"  X Y > > > Z a `  . . . . . . . .H a l > > > > ..  u V W       ",
"  +.> > > > @.a a a a a a a a a a a a a #.> > > $.  u %.&.      ",
"  *.=.> > > Z a -.> > > > > > > > > > > > > > > ;.  u %.>.      ",
"  ,.J > > > P a '.).> > > > > > > > > > > > > > '   u %.>.      ",
"    !.> > > E a a ~.> > > > > > {.k a ].> > > ^./.  u (._.      ",
"    :.> > > > x a <.[.> > > > #.}.a |.1.> > > 2.    u 3.4.      ",
"    5.O > > > j b a 6.7.8.].9.0.a a.b.> > > > c.    u 3.4.      ",
"      $.> > > > d.e.f.a a a a a g.h.> > > > i.      u j.4.      ",
"        k.> > > > > l.m.n.o.p.m.> > > > > q.r.      u j.4.      ",
"        s.t.> > > > > > > > > > > > > > J u.        u v.w.      ",
"          N x.> > > > > > > > > > > > y.z.          u A.B.      ",
"              C.D.> > > > > > > > E.F.G.            u A.B.      ",
"                  t H.I.J.K.L.M.N.O.                u P.Q.      ",
"                                                    u R.S.      ",
"                                                    T.R.Q.      ",
"                                                                ",
"                                                                ",
"                                                                ",
"                                                                "};
