/* XPM */
static char *layout[]={
"32 32 123 2",
"Qt c None",
".O c #076bff",
".W c #0a6cff",
".H c #0b6dff",
".P c #0f6fff",
".X c #1170ff",
".I c #1674ff",
".Y c #1b75ff",
".A c #1c76ff",
".3 c #2078ff",
".V c #2279ff",
".B c #237cff",
".6 c #257dff",
".u c #277dff",
".4 c #287fff",
".Q c #2a80ff",
"#d c #2b7fff",
".Z c #2f81ff",
".J c #3182ff",
".2 c #3284ff",
".v c #3485ff",
".E c #3586ff",
".5 c #3887ff",
".U c #3f8bff",
".C c #408dff",
".p c #428eff",
".0 c #4390ff",
".K c #4790ff",
".T c #4a92ff",
".R c #4c93ff",
".q c #4e94ff",
".w c #5095ff",
".o c #5197ff",
".s c #5398ff",
".N c #579aff",
".D c #589bff",
".x c #5a9cff",
".S c #5c9eff",
".r c #5e9fff",
".7 c #5f9dff",
".j c #62a1ff",
".1 c #65a1ff",
".k c #66a2ff",
".i c #68a4ff",
".c c #69a5ff",
".b c #6da7ff",
".h c #6ea9ff",
".a c #70aaff",
".n c #71acff",
".# c #75abff",
".m c #77acff",
".g c #78aeff",
".f c #7aafff",
".l c #7eb1ff",
".e c #7fb2ff",
".d c #81b4ff",
".8 c #82b5ff",
".9 c #84b4ff",
"#b c #88b6ff",
"#. c #89b8ff",
".M c #8bb9ff",
"#a c #8cbaff",
"## c #90bcff",
"#n c #91beff",
"#m c #93bdff",
"#c c #96bfff",
"#l c #97c1ff",
"#j c #99c2ff",
"#e c #9ac4ff",
"#g c #9ec3ff",
"#f c #9fc5ff",
"#i c #a1c6ff",
"#w c #a4c9ff",
"#E c #a5caff",
"#x c #a7c9ff",
"#k c #a8cbff",
"#h c #acccff",
"#D c #adceff",
"#t c #afcfff",
"#p c #b2d0ff",
"#r c #b3d1ff",
"#q c #b4d3ff",
".G c #b7d3ff",
"#o c #b9d4ff",
"#O c #bad6ff",
"#v c #bdd6ff",
"#u c #bed8ff",
".t c #c0d9ff",
"#C c #c4dbff",
".z c #c5ddff",
"#B c #c8ddff",
".y c #c9dfff",
"#N c #cbe0ff",
".F c #cce1ff",
"#A c #cee2ff",
"#2 c #cfe2ff",
"#U c #d2e4ff",
"#s c #d3e3ff",
".L c #d5e5ff",
"#Y c #d7e5ff",
"#z c #d8e8ff",
"#M c #d9e9ff",
"#y c #dce9ff",
"#H c #ddebff",
"#T c #dfecff",
"#L c #e0ebff",
"#G c #e1edff",
"#S c #e3eeff",
"#K c #e4f0ff",
"#F c #e7f0ff",
"#J c #e8f2ff",
"#1 c #eaf3ff",
"#R c #ebf2ff",
"#I c #ecf4ff",
"#X c #eef5ff",
"#Q c #eff3ff",
"#W c #f1f4ff",
"#P c #f2f6ff",
"#V c #f4f8ff",
"#0 c #f5faff",
"#Z c #f6f6ff",
"#4 c #f6ffff",
"#3 c #fcfcfc",
"QtQtQtQtQtQtQtQtQtQtQtQtQtQtQtQtQtQtQtQtQtQtQtQtQtQtQtQtQtQtQtQt",
"QtQtQtQtQtQtQtQtQtQtQtQtQtQtQt.#.a.b.cQtQtQtQtQtQtQtQtQtQtQtQtQt",
"QtQtQtQtQtQtQtQtQtQt.d.e.e.f.g.#.a.h.iQtQtQtQtQtQtQtQtQtQtQtQtQt",
"QtQtQtQtQt.j.k.h.f.d.d.e.l.g.m.n.a.b.c.cQtQtQtQtQtQtQtQtQtQtQtQt",
"QtQtQtQt.o.p.q.r.a.m.f.g.g.m.s.k.h.c.c.iQtQtQtQtQtQtQtQtQtQtQtQt",
"QtQtQt.t.j.u.v.q.k.a.n.#.a.n.w.x.b.c.c.i.iQtQtQtQtQtQtQtQtQtQtQt",
"QtQt.y.z.l.A.B.C.D.i.h.h.h.b.k.E.c.c.c.i.cQtQtQtQtQtQtQtQtQtQtQt",
"QtQt.F.y.G.H.I.J.K.x.i.c.c.c.c.q.q.i.k.i.i.cQtQtQtQtQtQtQtQtQtQt",
"Qt.L.M.N.I.O.P.Q.C.R.x.k.i.k.S.T.U.j.i.i.c.bQtQtQtQtQtQtQtQtQtQt",
"Qt.V.W.O.P.X.Y.Z.p.T.w.K.0.p.R.D.T.D.1.x.D.a.nQtQtQtQtQtQtQtQtQt",
"Qt.2.3.3.V.V.u.4.4.u.C.o.k.#.m.#.T.U.p.R.o.T.mQtQtQtQtQtQtQtQtQt",
"Qt.s.U.E.Z.J.5.6.R.h.n.m.f.g.S.U.R.r.#.m.g.q.b.lQtQtQtQtQtQtQtQt",
"Qt.n.7.s.q.o.x.q.s.#.l.8.9.m.x.8.8.d.d.d.a.D.s.dQtQtQtQtQtQtQtQt",
"Qt#..l.g.n.n.a.i.q.8###a##.d.r#####..a.o.x.i#.#b#bQtQtQtQtQtQtQt",
"QtQt#c#a#b.8.d.m#d.h.d#e#f#g.a#b.f.1.i.N########.MQtQtQtQtQtQtQt",
"QtQt#h#i#e#j.8.k#a##.k#b#k#h#e#..f#l#f.m.9#j#j#m#n##QtQtQtQtQtQt",
"QtQt.t#o#p#h#j###p#f.f#q#q#r#r#p#p#h#k#e.h#i#g#e#j#c#mQtQtQtQtQt",
"QtQt#s.F.z.t#r#n.8#g#t.t#u#u#v#o#o#q#w.9.l#x#w#i#f#g#jQtQtQtQtQt",
"QtQtQt#y#z#s#A.F#o.a.y#B#B#B#C#v#i.M.d#g#t#t#D#x#E#i#g#jQtQtQtQt",
"QtQtQt#F#G#H#z.L#s#l.G#A#A#x.m#j#k#v.t#v#o#q#r#t#h#x#i#gQtQtQtQt",
"QtQtQt#I#J#K#L#H#M#u#p#D#j#x#x#q#A#N#B#C#u#O.G#r#t#h#x#w#fQtQtQt",
"QtQtQt#P#Q#R#F#S#G#T#r#C.L#M.t#e#U#A#N#B#C.t#v.G#r#t#h#xQtQtQtQt",
"QtQtQtQt#V#W#X#R#J#K#S#G#L#T#y#a#Y#s#A#N#B#C.t#v#o#q#tQtQtQtQtQt",
"QtQtQtQt#Z#0#P#W#X#R#1#F#K#S#L#H#M#Y#s#2.F#B#C.t#vQtQtQtQtQtQtQt",
"QtQtQtQt#3#4#4#V#P#Q#X#R#1#F#K#L#H#M#Y#s#2.F.yQtQtQtQtQtQtQtQtQt",
"QtQtQtQt#3#3#3#3#Z#V#P#Q#I#1#F#K#G#T#M#YQtQtQtQtQtQtQtQtQtQtQtQt",
"QtQtQtQtQt#3#3#3#3#4#0#P#Q#I#1#F#K#GQtQtQtQtQtQtQtQtQtQtQtQtQtQt",
"QtQtQtQtQt#3#3#3#3#3#4#0#P#W#X#1QtQtQtQtQtQtQtQtQtQtQtQtQtQtQtQt",
"QtQtQtQtQt#3#3#3#3#3#3#4#0QtQtQtQtQtQtQtQtQtQtQtQtQtQtQtQtQtQtQt",
"QtQtQtQtQtQt#3#3#3#3QtQtQtQtQtQtQtQtQtQtQtQtQtQtQtQtQtQtQtQtQtQt",
"QtQtQtQtQtQt#3QtQtQtQtQtQtQtQtQtQtQtQtQtQtQtQtQtQtQtQtQtQtQtQtQt",
"QtQtQtQtQtQtQtQtQtQtQtQtQtQtQtQtQtQtQtQtQtQtQtQtQtQtQtQtQtQtQtQt"};
