/* XPM */
static char * pathway_xpm[] = {
"32 32 19 1",
" 	c None",
".	c #709DDB",
"+	c #6F9EDC",
"@	c #6F9FDC",
"#	c #000000",
"$	c #17222F",
"%	c #6D9CD9",
"&	c #26364B",
"*	c #0A0E13",
"=	c #020406",
"-	c #223044",
";	c #5C83B7",
">	c #435E84",
",	c #06080C",
"'	c #577DAE",
")	c #6F9DDC",
"!	c #6F9EDB",
"~	c #6F9EDD",
"{	c #709FDD",
"                                ",
"                                ",
"                                ",
"                                ",
"                                ",
"                                ",
"                                ",
"                                ",
"                                ",
"                                ",
"                                ",
"  .........                     ",
" ++++++++++             ++++@   ",
" ++++++++++       ##   +++++++  ",
" ++++++++++        ## +++++++++ ",
" ++++++++++         #$%++++++++ ",
" +++++++++&*#########=-++++++++.",
" +++++++++;>        #,'++++++++ ",
" ++++++++++         # +++++++++ ",
" ++++++++++       ##  )+++++++@ ",
" ++++++++++       #    +++++++  ",
" !+++++++++              ~{@    ",
"                                ",
"                                ",
"                                ",
"                                ",
"                                ",
"                                ",
"                                ",
"                                ",
"                                ",
"                                "};
