/* XPM */
static char * process_xpm[] = {
"24 24 42 1",
" 	c None",
".	c #6F9EDC",
"+	c #6F9FDB",
"@	c #5478A8",
"#	c #1B2737",
"$	c #1D2939",
"%	c #3E587B",
"&	c #6894CE",
"*	c #4C6C96",
"=	c #000000",
"-	c #26364B",
";	c #374E6D",
">	c #364D6B",
",	c #2A3C53",
"'	c #1A2635",
")	c #0C1118",
"!	c #0A0F15",
"~	c #5F87BC",
"{	c #5174A2",
"]	c #020305",
"^	c #0D1219",
"/	c #6C9AD6",
"(	c #344A67",
"_	c #587EB0",
":	c #4E6F9B",
"<	c #425E84",
"[	c #436085",
"}	c #27374D",
"|	c #5B82B6",
"1	c #618AC0",
"2	c #2E415B",
"3	c #27384E",
"4	c #131B25",
"5	c #17222F",
"6	c #0A0E13",
"7	c #020304",
"8	c #293A51",
"9	c #6B99D5",
"0	c #395171",
"a	c #4D6D98",
"b	c #638DC5",
"c	c #709DDB",
"                        ",
"                        ",
"   ..................   ",
"  +..................+  ",
"  +...@######$%&.....+  ",
"  +...*=-;>,')=!~....+  ",
"  +...*=*.....{]^/...+  ",
"  +...*=*......(=_...+  ",
"  +...*=*......:=<...+  ",
"  +...*=*......*=[...+  ",
"  +...*=*......}=|...+  ",
"  +...*=*....12=3....+  ",
"  +...*=4##56=789....+  ",
"  +...*=-;;0<ab......+  ",
"  +...*=*............+  ",
"  +...*=*............+  ",
"  +...*=*............+  ",
"  +...*=*............+  ",
"  +...*=*............+  ",
"  +...*=*............+  ",
"  +..................+  ",
"   cccccccccccccccccc   ",
"                        ",
"                        "};
