/* XPM */
static char * selector_xpm[] = {
"24 24 44 1",
" 	c None",
".	c #6586A5",
"+	c #60788E",
"@	c #505F6C",
"#	c #111112",
"$	c #677F96",
"%	c #566674",
"&	c #050505",
"*	c #101111",
"=	c #68829A",
"-	c #647B91",
";	c #0C0C0D",
">	c #000000",
",	c #0F1011",
"'	c #6B88A3",
")	c #6D8DAA",
"!	c #17181A",
"~	c #6A86A0",
"{	c #282E32",
"]	c #0F1010",
"^	c #45515C",
"/	c #010101",
"(	c #030303",
"_	c #5B6F81",
":	c #070809",
"<	c #7093B4",
"[	c #262C32",
"}	c #070708",
"|	c #627C94",
"1	c #61798E",
"2	c #090A0A",
"3	c #0D0F10",
"4	c #6D8CA9",
"5	c #4A5B6B",
"6	c #455768",
"7	c #69849D",
"8	c #131415",
"9	c #15181A",
"0	c #6F8FAD",
"a	c #252A2E",
"b	c #242A2F",
"c	c #465563",
"d	c #3B4752",
"e	c #6786A3",
"                        ",
"                        ",
"                        ",
"                        ",
"                        ",
"         .+             ",
"         @#$            ",
"         %&*=           ",
"         -;>,'          ",
"         )!>>*~         ",
"          {>>>]'        ",
"          ^>/(>*'       ",
"          _(:<[},|      ",
"          123  456      ",
"          789           ",
"          0ab           ",
"           cd           ",
"            e           ",
"                        ",
"                        ",
"                        ",
"                        ",
"                        ",
"                        "};
