/* XPM */
static char * textbox_xpm[] = {
"24 24 37 1",
" 	c None",
".	c #6F9EDC",
"+	c #6F9FDB",
"@	c #6894CE",
"#	c #06090D",
"$	c #05080B",
"%	c #1E2A3B",
"&	c #344A67",
"*	c #374E6D",
"=	c #182230",
"-	c #000000",
";	c #334965",
">	c #1C2838",
",	c #040609",
"'	c #0F161F",
")	c #6D9BD8",
"!	c #233245",
"~	c #6A97D3",
"{	c #304560",
"]	c #6894CF",
"^	c #456289",
"/	c #3D5779",
"(	c #6E9DDB",
"_	c #6C9AD6",
":	c #3E587B",
"<	c #2F425D",
"[	c #6692CB",
"}	c #5D84B8",
"|	c #4A6993",
"1	c #080B10",
"2	c #2D4059",
"3	c #587EB0",
"4	c #628CC3",
"5	c #648FC7",
"6	c #5376A4",
"7	c #5A80B2",
"8	c #709DDB",
"                        ",
"                        ",
"   ..................   ",
"  +..................+  ",
"  +..................+  ",
"  +..@#$%&*=-**;>,').+  ",
"  +..*!~...{-....]>^.+  ",
"  +.)/(....{-....._:.+  ",
"  +........{-........+  ",
"  +........{-........+  ",
"  +........{-........+  ",
"  +........{-........+  ",
"  +........{-........+  ",
"  +........{-........+  ",
"  +........{-........+  ",
"  +........{-........+  ",
"  +........<-).......+  ",
"  +....([}|1-234_....+  ",
"  +....5666666667....+  ",
"  +..................+  ",
"  +..................+  ",
"   888888888888888888   ",
"                        ",
"                        "};
