/* XPM */
static char * variable_xpm[] = {
"24 24 66 1",
" 	c None",
".	c #6F9EDD",
"+	c #6F9DDC",
"@	c #709DDB",
"#	c #6F9EDC",
"$	c #6F9EDB",
"%	c #283A51",
"&	c #0E151D",
"*	c #6691CA",
"=	c #020304",
"-	c #3E587B",
";	c #5174A2",
">	c #000000",
",	c #557AA9",
"'	c #3F5B7E",
")	c #6590C9",
"!	c #709EDC",
"~	c #6E9CDA",
"{	c #0C1118",
"]	c #2D415A",
"^	c #17212E",
"/	c #223145",
"(	c #344A67",
"_	c #070B0F",
":	c #6C9AD7",
"<	c #5E85BA",
"[	c #4C6C96",
"}	c #5D84B8",
"|	c #4C6D97",
"1	c #354C6A",
"2	c #090D12",
"3	c #16202C",
"4	c #243448",
"5	c #6E9DDB",
"6	c #0D131A",
"7	c #304560",
"8	c #3F5A7D",
"9	c #030406",
"0	c #6894CF",
"a	c #5376A4",
"b	c #5A80B2",
"c	c #709FDC",
"d	c #436085",
"e	c #2A3C54",
"f	c #141D29",
"g	c #212F42",
"h	c #1B2736",
"i	c #6B98D4",
"j	c #06080C",
"k	c #4A6993",
"l	c #618BC2",
"m	c #486790",
"n	c #6F9FDD",
"o	c #6B99D5",
"p	c #070A0E",
"q	c #3A5373",
"r	c #1F2D3E",
"s	c #6E9EDC",
"t	c #2C3F58",
"u	c #121A24",
"v	c #648FC8",
"w	c #010102",
"x	c #28394F",
"y	c #6F9DDD",
"z	c #0F151E",
"A	c #384F6F",
"                        ",
"                        ",
"          .++.          ",
"       @########        ",
"      .###########      ",
"     ##############     ",
"    $#%&########*=-$    ",
"    ##;>,#######'=)#    ",
"   !##~{]#######^/##!   ",
"   ####(_:#####<>[###   ",
"   ####}>|#####12:###   ",
"  ######34####567#####  ",
"  ######890###a>b####c  ",
"   #####)=d###ef#####   ",
"   ######gh##ij-#####   ",
"   !#####k>l#m=)####n   ",
"    #####opq#r/#####    ",
"    s#####tuvw[####s    ",
"     #####,>x2:####     ",
"      y####z>7###y      ",
"        ###A>b##        ",
"                        ",
"                        ",
"                        "};
