/* XPM */
static char * ecell_xpm[] = {
"72 72 129 2",
"  	c None",
". 	c #FFFFFF",
"+ 	c #F6F6F6",
"@ 	c #D4D3D3",
"# 	c #ADACAC",
"$ 	c #8D8B8C",
"% 	c #6D6B6B",
"& 	c #4B4748",
"* 	c #3D393A",
"= 	c #302C2D",
"- 	c #646262",
"; 	c #7F7D7E",
"> 	c #9D9C9C",
", 	c #BCBBBB",
"' 	c #EAEAEA",
") 	c #E8E7E7",
"! 	c #747272",
"~ 	c #434040",
"{ 	c #262222",
"] 	c #231F20",
"^ 	c #585556",
"/ 	c #D0CFCF",
"( 	c #DBDADA",
"_ 	c #848283",
": 	c #332F30",
"< 	c #292526",
"[ 	c #B8B7B7",
"} 	c #FAFAFA",
"| 	c #CBCACA",
"1 	c #2B2828",
"2 	c #F2F2F2",
"3 	c #6A6768",
"4 	c #2D2A29",
"5 	c #44433D",
"6 	c #5A594C",
"7 	c #696753",
"8 	c #6C6A54",
"9 	c #626150",
"0 	c #484642",
"a 	c #A2A0A0",
"b 	c #353231",
"c 	c #928D5B",
"d 	c #B5AC58",
"e 	c #E0D13D",
"f 	c #FAE60B",
"g 	c #FFEE00",
"h 	c #FFF200",
"i 	c #FCE800",
"j 	c #EADA2F",
"k 	c #CABE4F",
"l 	c #A39D5A",
"m 	c #817E59",
"n 	c #4C4C43",
"o 	c #4E4B4C",
"p 	c #757357",
"q 	c #EFDD28",
"r 	c #FEEA00",
"s 	c #D2C54A",
"t 	c #B7B6B6",
"u 	c #B0AFAF",
"v 	c #8A865A",
"w 	c #E6D635",
"x 	c #F5E319",
"y 	c #706E55",
"z 	c #7D7A7B",
"A 	c #9B955B",
"B 	c #403F3C",
"C 	c #959393",
"D 	c #E8D733",
"E 	c #777557",
"F 	c #C5C4C4",
"G 	c #EAD931",
"H 	c #3D3C38",
"I 	c #726F70",
"J 	c #FDFDFD",
"K 	c #BEB455",
"L 	c #373533",
"M 	c #999798",
"N 	c #EEEDEE",
"O 	c #FFC809",
"P 	c #FBAC18",
"Q 	c #F89A1D",
"R 	c #F7931E",
"S 	c #F58120",
"T 	c #F78D1E",
"U 	c #FCB415",
"V 	c #FFD500",
"W 	c #FEBF10",
"X 	c #F05323",
"Y 	c #EE2324",
"Z 	c #ED1C24",
"` 	c #EE2924",
" .	c #F6861F",
"..	c #FEBC11",
"+.	c #E1E0E0",
"@.	c #F16122",
"#.	c #F15A22",
"$.	c #FAA31B",
"%.	c #FFE800",
"&.	c #716E6F",
"*.	c #FFC30D",
"=.	c #F8961D",
"-.	c #EF4223",
";.	c #D5C747",
">.	c #EE3724",
",.	c #F37221",
"'.	c #FDB913",
").	c #FFE300",
"!.	c #FFD000",
"~.	c #FFF100",
"{.	c #DBCD41",
"].	c #F04B23",
"^.	c #F36B21",
"/.	c #FFDB00",
"(.	c #C5BA51",
"_.	c #FFCC04",
":.	c #605D5D",
"<.	c #F47920",
"[.	c #ED1F24",
"}.	c #797777",
"|.	c #ABA35A",
"1.	c #908E8E",
"2.	c #F3E021",
"3.	c #A9A7A8",
"4.	c #CEC24C",
"5.	c #ECDB2C",
"6.	c #7F7C59",
"7.	c #797658",
"8.	c #E3D438",
". . . . . . . . . . . . . . . . . . . . . . . . . . . + @ # $ % & * = = = = = & - ; > , ' . . . . . . . . . . . . . . . . . . . . . . . . . . . ",
". . . . . . . . . . . . . . . . . . . . . . . . ) # ! ~ { ] ] ] ] ] ] ] ] ] ] ] ] ] ] ] = ^ $ / . . . . . . . . . . . . . . . . . . . . . . . . ",
". . . . . . . . . . . . . . . . . . . . . . ( _ : ] ] ] ] ] ] ] ] ] ] ] ] ] ] ] ] ] ] ] ] ] ] < % [ } . . . . . . . . . . . . . . . . . . . . . ",
". . . . . . . . . . . . . . . . . . . . | % 1 ] ] ] ] ] ] ] ] ] ] ] ] ] ] ] ] ] ] ] ] ] ] ] ] ] ] ] & > 2 . . . . . . . . . . . . . . . . . . . ",
". . . . . . . . . . . . . . . . . . / 3 { ] ] ] ] ] ] ] ] ] ] 4 5 6 7 8 7 8 9 0 = ] ] ] ] ] ] ] ] ] ] ] ~ a + . . . . . . . . . . . . . . . . . ",
". . . . . . . . . . . . . . . . ' _ < ] ] ] ] ] ] ] ] b 7 c d e f g h h h h g i j k l m n { ] ] ] ] ] ] ] ] o | . . . . . . . . . . . . . . . . ",
". . . . . . . . . . . . . . . ( ~ ] ] ] ] ] ] ] b p d q h h h h h h h h h h h h h h h h r s c n ] ] ] ] ] ] ] = t . . . . . . . . . . . . . . . ",
". . . . . . . . . . . . . + u ~ ] ] ] ] ] { 6 v w h h h h h h h h h h h h h h h h h h h h h h x l y 5 ] ] ] ] ] ] z @ . . . . . . . . . . . . . ",
". . . . . . . . . . . . ( o ] ] ] ] ] ] y s g h h h h h h h h h h h h h h h h h h h h h h h h h h h x A B ] ] ] ] ] < C . . . . . . . . . . . . ",
". . . . . . . . . . . | * ] ] ] ] ] 0 d h h h h h h h h h h h h h h h h h h h h h h h h h h h h h h h h D E ] ] ] ] ] ] ; } . . . . . . . . . . ",
". . . . . . . . . . F : ] ] ] ] ] p G h h h h h h h h h h h h h h h h h h h h h h h h h h h h h h h h h h h d H ] ] ] ] ] I } . . . . . . . . . ",
". . . . . . . . . | = ] ] ] ] { A h h h h h h h h h h h h h h h h h h h h h h h h h h h h h h h h h h h h h h k 1 ] ] ] ] ] ! J . . . . . . . . ",
". . . . . . . . ( * ] ] ] ] ] v h h h h h h h h h h h h h h h h h h h h h h h h h h h h h h h h h h h h h h h h K L ] ] ] ] ] M . . . . . . . . ",
". . . . . . . + & ] ] ] ] ] m r h h h h h h h h h h h h h h h h h h h h h h h h h h h h h h h h h h h h h h h h h k B ] ] ] ] L N . . . . . . . ",
". . . . . . . u ] ] ] ] ] m h h h h h h h h h h h h h h h h h h h h h h h h h h h h h h h h h h h h h h h h h h h h s L ] ] ] ] % . . . . . . . ",
". . . . . . ( ~ ] ] ] { v r h h h h h h h h h h h h h h h h h h h h h h h h h h h h h h h h h h h h h h h h h h h h h k n ] ] ] ] $ J . . . . . ",
". . . . . N ~ ] ] ] ] A h h h h h h h h h h h h h h h h h h h r O P Q R S S T Q U V r h h h h h h h h h h h h h h h h h j n ] ] ] ] > . . . . . ",
". . . . . _ ] ] ] ] p h h h h h h h h h h h h h h h h h g W T X Y Z Z Z Z Z Z Z Z ` X  ...r h h h h h h h h h h h h h h h s 4 ] ] ] = +.. . . . ",
". . . . @ < ] ] ] 0 q h h h h h h h h h h h h h h h r P @.Z Z Z Z Z Z Z Z Z Z Z Z Z Z Z Z #.$.%.h h h h h h h h h h h h h h c ] ] ] ] &.. . . . ",
". . . . 3 ] ] ] ] d h h h h h h h h h h h h h h h *.@.Z Z Z Z Z Z Z Z Z Z Z Z Z Z Z Z Z Z Z Z #.V h h h h h h h h h h h h h r 6 ] ] ] { / . . . ",
". . . / { ] ] ] 8 h h h h h h h h h h h h h h h =.` Z Z Z Z Z Z Z Z Z Z Z Z Z Z Z Z Z Z Z Z Z Z -.P h h h h h h h h h h h h h d ] ] ] ] 3 . . . ",
". . . % ] ] ] 1 ;.h h h h h h h h h h h h h h P Z Z Z Z Z Z Z Z Z Z Z Z Z Z Z Z Z Z Z Z Z Z Z Z Z Z T h h h h h h h h h h h h w 4 ] ] ] { @ . . ",
". . +.1 ] ] ] 6 h h h h h h h h h h h h h h W >.Z Z Z Z Z Z Z Z -.,.=.$.U P $.T @.` Z Z Z Z Z Z Z Z Z T h h h h h h h h h h h h E ] ] ] ] z . . ",
". . _ ] ] ] ] c h h h h h h h h h h h h h '.>.Z Z Z Z Z Z Z #.=.).h h h h h h h g !.R @.Z Z Z Z Z Z Z Z Q ~.h h h h h h h h h h {.b ] ] ] : +.. ",
". ) = ] ] ] L G h h h h h h h h h h h h '.Y Z Z Z Z Z Z ` $.r h h h h h h h h h h h h g U >.Z Z Z Z Z Z Z $.h h h h h h h h h h h v ] ] ] ] $ . ",
". # ] ] ] ] p h h h h h h h h h h h h ).].Z Z Z Z Z Z ` P h h h h h h h h h h h h h h h h '.` Z Z Z Z Z Z ].).h h h h h h h h h h ;.< ] ] ] & } ",
". I ] ] ] ] d h h h h h h h h h h h h =.Z Z Z Z Z Z Z $.h h h h h h h h h h h h h h h h h h R Z Z Z Z Z Z Z P h h h h h h h h h h g 6 ] ] ] { @ ",
"} B ] ] ] b q h h h h h h h h h h h ).-.Z Z Z Z Z Z ^.h h h h h h h h h h h h h h h h h h h ).].Z Z Z Z Z Z ^.h h h h h h h h h h h c ] ] ] ] a ",
"@ { ] ] ] 7 h h h h h h h h h h h h $.Z Z Z Z Z Z Y O h h h h h h h h h h h h h h h h h h h h =.Z Z Z Z Z Z >./.h h h h h h h h h h (.{ ] ] ] _ ",
"# ] ] ] ] c h h h h h h h h h h h h ^.Z Z Z Z Z Z ^.h h h h h h h h h h h h h h h h h h h h h U Z Z Z Z Z Z Z U h h h h h h h h h h q b ] ] ] % ",
"$ ] ] ] ] d h h h h h h h h h h h /.>.Z Z Z Z Z Z $.h h h h h h h h h h h h h h h h h h h h h _.Y Z Z Z Z Z Z Q h h h h h h h h h h g 6 ] ] ] :.",
"% ] ] ] < e h h h h h h h h h h h P Z Z Z Z Z Z Y _.h h h h h h h h h h h h h h h h h h h h h ).>.Z Z Z Z Z Z  .h h h h h h h h h h h m ] ] ] o ",
"o ] ] ] 5 i h h h h h h h h h h h  .Z Z Z Z Z Z >.O !.!.!.!.!.!.!.!.!.!.!.!.!.!.!.!.!.!.!.!.!._.].Z Z Z Z Z Z <.h h h h h h h h h h h l ] ] ] * ",
"* ] ] ] 6 g h h h h h h h h h h h ,.Z Z Z Z Z Z [.` ` ` ` ` ` ` ` ` ` ` ` ` ` ` ` ` ` ` ` ` ` ` [.Z Z Z Z Z Z ,.h h h h h h h h h h h d ] ] ] b ",
"4 ] ] ] 7 h h h h h h h h h h h g @.Z Z Z Z Z Z Z Z Z Z Z Z Z Z Z Z Z Z Z Z Z Z Z Z Z Z Z Z Z Z Z Z Z Z Z Z Z ^.h h h h h h h h h h h (.] ] ] = ",
"= ] ] ] 7 h h h h h h h h h h h r X Z Z Z Z Z Z Z Z Z Z Z Z Z Z Z Z Z Z Z Z Z Z Z Z Z Z Z Z Z Z Z Z Z Z Z Z Z ^.h h h h h h h h h h h (.] ] ] = ",
"= ] ] ] 7 h h h h h h h h h h h r X Z Z Z Z Z Z Z Z Z Z Z Z Z Z Z Z Z Z Z Z Z Z Z Z Z Z Z Z Z Z Z Z Z Z Z Z Z ^.h h h h h h h h h h h (.] ] ] = ",
"= ] ] ] 8 h h h h h h h h h h h r X Z Z Z Z Z Z [.Z Z Z Z Z Z Z Z Z Z Z Z Z Z Z Z Z Z Z Z Z Z Z Z Z Z Z Z Z Z ^.h h h h h h h h h h h (.] ] ] = ",
"= ] ] ] 9 g h h h h h h h h h h r X Z Z Z Z Z Z #...........................................................'._.h h h h h h h h h h h K ] ] ] : ",
"& ] ] ] n r h h h h h h h h h h g ^.Z Z Z Z Z Z X h h h h h h h h h h h h h h h h h h h h h h h h h h h h h h h h h h h h h h h h h h l ] ] ] * ",
"- ] ] ] = j h h h h h h h h h h h  .Z Z Z Z Z Z ` /.h h h h h h h h h h h h h h h h h h h h h h h h h h h h h h h h h h h h h h h h h v ] ] ] & ",
"z ] ] ] { k h h h h h h h h h h h Q Z Z Z Z Z Z Z '.h h h h h h h h h h h h h h h h h h h h h h h h h h h h h h h h h h h h h h h h h y ] ] ] ^ ",
"> ] ] ] ] l h h h h h h h h h h h *.Z Z Z Z Z Z Z T h h h h h h h h h h h h h h h h h h h h h g !.!.!.!.!.!.!.).h h h h h h h h h h i 0 ] ] ] - ",
", ] ] ] ] m h h h h h h h h h h h %.].Z Z Z Z Z Z X g h h h h h h h h h h h h h h h h h h h h _.` ` ` ` ` ` Y U h h h h h h h h h h {.< ] ] ] }.",
"' = ] ] ] n r h h h h h h h h h h h S Z Z Z Z Z Z Z '.h h h h h h h h h h h h h h h h h h h h $.Z Z Z Z Z Z ` /.h h h h h h h h h h |.] ] ] ] 1.",
". ^ ] ] ] { ;.h h h h h h h h h h h *.[.Z Z Z Z Z Z @.g h h h h h h h h h h h h h h h h h h %.#.Z Z Z Z Z Z <.h h h h h h h h h h h p ] ] ] ] , ",
". $ ] ] ] ] c h h h h h h h h h h h g ^.Z Z Z Z Z Z Z Q h h h h h h h h h h h h h h h h h h S Z Z Z Z Z Z Z O h h h h h h h h h h 2.H ] ] ] = ' ",
". @ < ] ] ] n x h h h h h h h h h h h O >.Z Z Z Z Z Z ` $.%.h h h h h h h h h h h h h h V S Z Z Z Z Z Z Z T h h h h h h h h h h h l ] ] ] ] ! . ",
". . 3 ] ] ] ] l h h h h h h h h h h h h W ` Z Z Z Z Z Z Z @.*.h h h h h h h h h h h ).=.>.Z Z Z Z Z Z Z <.h h h h h h h h h h h x 5 ] ] ] { / . ",
". . , ] ] ] ] y h h h h h h h h h h h h h $.Z Z Z Z Z Z Z Z [.<.O %.g h h h h %.*.T ].Z Z Z Z Z Z Z Z #.).h h h h h h h h h h h l ] ] ] ] ^ J . ",
". . + ~ ] ] ] B x h h h h h h h h h h h h h Q Z Z Z Z Z Z Z Z Z Y -.@.,.S <.^.].[.Z Z Z Z Z Z Z Z Z ].V h h h h h h h h h h h i n ] ] ] ] 3.. . ",
". . . > ] ] ] ] A h h h h h h h h h h h h h h =.Z Z Z Z Z Z Z Z Z Z Z Z Z Z Z Z Z Z Z Z Z Z Z Z Z #./.h h h h h h h h h h h h 4.] ] ] ] * 2 . . ",
". . . 2 * ] ] ] H 5.h h h h h h h h h h h h h g T Y Z Z Z Z Z Z Z Z Z Z Z Z Z Z Z Z Z Z Z Z Z Z S ).h h h h h h h h h h h h h v ] ] ] ] > . . . ",
". . . . > ] ] ] ] E h h h h h h h h h h h h h h h *.@.Z Z Z Z Z Z Z Z Z Z Z Z Z Z Z Z Z Z Z >.Q h h h h h h h h h h h h h h ;.= ] ] ] B 2 . . . ",
". . . . + & ] ] ] ] d h h h h h h h h h h h h h h h g U ,.` Z Z Z Z Z Z Z Z Z Z Z Z Z [.X R V h h h h h h h h h h h h h h r 6 ] ] ] ] # . . . . ",
". . . . . | : ] ] ] H k h h h h h h h h h h h h h h h h h V $. .,.@.@.#.X @.@.^.<. .Q *.r h h h h h h h h h h h h h h h f 6.] ] ] ] &.J . . . . ",
". . . . . . t { ] ] ] 4 K h h h h h h h h h h h h h h h h h h h h ~.g r r g g h h h h h h h h h h h h h h h h h h h h r 8 ] ] ] ] ^ } . . . . . ",
". . . . . . . z ] ] ] ] L k h h h h h h h h h h h h h h h h h h h h h h h h h h h h h h h h h h h h h h h h h h h h g 7.] ] ] ] b +.. . . . . . ",
". . . . . . . ( { ] ] ] ] B s h h h h h h h h h h h h h h h h h h h h h h h h h h h h h h h h h h h h h h h h h h g 6.] ] ] ] { t . . . . . . . ",
". . . . . . . . C ] ] ] ] ] L 4.h h h h h h h h h h h h h h h h h h h h h h h h h h h h h h h h h h h h h h h h r 7.] ] ] ] ] :.. . . . . . . . ",
". . . . . . . . . ; ] ] ] ] ] 0 j h h h h h h h h h h h h h h h h h h h h h h h h h h h h h h h h h h h h h h i 8 ] ] ] ] ] b ( . . . . . . . . ",
". . . . . . . . . } I ] ] ] ] ] n 4.h h h h h h h h h h h h h h h h h h h h h h h h h h h h h h h h h h h h i 6.] ] ] ] ] = F . . . . . . . . . ",
". . . . . . . . . . } ! ] ] ] ] ] 1 c r h h h h h h h h h h h h h h h h h h h h h h h h h h h h h h h h h s 6 ] ] ] ] ] b F . . . . . . . . . . ",
". . . . . . . . . . . . M * ] ] ] ] ] 6 |.8.h h h h h h h h h h h h h h h h h h h h h h h h h h h h f k v 4 ] ] ] ] ] :.@ . . . . . . . . . . . ",
". . . . . . . . . . . . . ' % ] ] ] ] ] ] = 7.;.h h h h h h h h h h h h h h h h h h h h h h h h x l n ] ] ] ] ] ] L t . . . . . . . . . . . . . ",
". . . . . . . . . . . . . . . $ ] ] ] ] ] ] ] b v s g h h h h h h h h h h h h h h h h h h h q l 0 ] ] ] ] ] ] ] ^ ( . . . . . . . . . . . . . . ",
". . . . . . . . . . . . . . . . M : ] ] ] ] ] ] ] { 6 c (.q g h h h h h h h h h h h i {.|.p L ] ] ] ] ] ] ] ] I } . . . . . . . . . . . . . . . ",
". . . . . . . . . . . . . . . . . ( I { ] ] ] ] ] ] ] ] ] b 6 m l d (.(.(.(.K l v y 0 1 ] ] ] ] ] ] ] ] ] ~ # . . . . . . . . . . . . . . . . . ",
". . . . . . . . . . . . . . . . . . . | 3 { ] ] ] ] ] ] ] ] ] ] ] ] ] ] ] ] ] ] ] ] ] ] ] ] ] ] ] ] ] ~ > 2 . . . . . . . . . . . . . . . . . . ",
". . . . . . . . . . . . . . . . . . . . . / z : ] ] ] ] ] ] ] ] ] ] ] ] ] ] ] ] ] ] ] ] ] ] ] ] { ^ 3.2 . . . . . . . . . . . . . . . . . . . . ",
". . . . . . . . . . . . . . . . . . . . . . . +.$ & { ] ] ] ] ] ] ] ] ] ] ] ] ] ] ] ] ] ] ] : ! | J . . . . . . . . . . . . . . . . . . . . . . ",
". . . . . . . . . . . . . . . . . . . . . . . . . } @ a _ % :.o * L = = = = : * & ^ - }.1., ' . . . . . . . . . . . . . . . . . . . . . . . . . "};
