/* XPM */
static char *ecell[] = {
/* width height num_colors chars_per_pixel */
"    72    72       30            1",
/* colors */
". c #ffffff",
"# c #ffcc00",
"a c #ff9900",
"b c #ff6600",
"c c #ff3300",
"d c #cccccc",
"e c #cccc00",
"f c #cc9900",
"g c #cc3300",
"h c #999999",
"i c #999900",
"j c #996600",
"k c #666666",
"l c #666600",
"m c #663300",
"n c #333333",
"o c #333300",
"p c #dd0000",
"q c #220000",
"r c #110000",
"s c #eeeeee",
"t c #dddddd",
"u c #bbbbbb",
"v c #aaaaaa",
"w c #777777",
"x c #555555",
"y c #444444",
"z c #222222",
"A c #111111",
"B c #000000",
/* pixels */
".............................dvkynBBBBBnyxvd............................",
"..........................uwyBBBBBBBBBBBBBBBywu.........................",
"........................vkBBBBBBBBBBBBBBBBBBBBBkv.......................",
".....................yBBBBBBBBBBBBBBBBBBBBBBBBBBBBBy....................",
"...................uyBBBBBBBBBBBBBBBBBBBBBBBBBBBBBBByu..................",
"..................yBBBBBBBBBBBBojjfffffjjoBBBBBBBBBBBBt.................",
"................zBBBBBBBBBi###################iBBBBBBBBBz...............",
"...............wBBBBBBBBj#######################jBBBBBBBBw..............",
".............zBBBBBBBi#############################iBBBBBBBz............",
"............uBBBBBBrj###############################jrBBBBBBu...........",
"...........hBBBBBBoe#################################eBBBBBBBh..........",
"..........hBBBBBrf#####################################frBBBBBh.........",
".........uBBBBBB#########################################BBBBBBu........",
"........zBBBBBl###########################################lBBBBBz.......",
"........BBBBBl#############################################lBBBBB.......",
".......wBBBBB###############################################BBBBBw......",
"......zBBBBr#######################aaaa######################rBBBBz.....",
"......BBBBBf###################abcpppppppca##################fBBBBB.....",
".....yBBBBo#################bpppppppppppppppppc###############oBBBBy....",
"....uBBBBre###############bppppppppppppppppppppc##############erBBBBu...",
"....yBBBBj###############appppppppppppppppppppppp##############jBBBBy...",
"...yBBBBi###############ppppppppppppppppppppppppppp#############iBBBBy..",
"...BBBBB###############cppppppppppccbbbcpppppppppppp#############BBBBB..",
"...BBBBB##############bpppppppppba#######apppppppppp#############BBBBB..",
"..vBBBBj#############ppppppppga#############cppppppppb###########jBBBBv.",
"..kBBBB##############pppppppp################cpppppppp############BBBBk.",
".uBBBBi#############pppppppg###################ppppppp############iBBBBd",
".wBBBB#############bpppppppa###################pppppppa############BBBBw",
".yBBBB#############pppppppb####################pppppppc############BBBBy",
"dBBBBB############gppppppp######################pppppppa###########BBBBB",
"vBBBBB############pppppppp######################gppppppa###########BBBBB",
"xBBBBo############pppppppp######################bppppppc###########oBBBB",
"yBBBBj############pppppppc######################appppppp###########jBBBB",
"nBBBBj############pppppppgbbbbbbbbbbbbbbbbbbbbbbbppppppp###########jBBBB",
"BBBBBf###########apppppppppppppppppppppppppppppppppppppp###########fBBBB",
"BBBBBf###########appppppppppppppppppppppppppppppppppppppa##########fBBBB",
"BBBBBf###########bppppppppppppppppppppppppppppppppppppppa##########fBBBB",
"BBBBBf###########appppppppppppppppppppppppppppppppppppppa##########fBBBB",
"BBBBBf###########apppppppcbbbbbbbbbbbbbbbbbbbbbbbbbbbbbb###########fBBBB",
"nBBBBj###########apppppppb#########################################jBBBB",
"yBBBBj############pppppppc#########################################jBBBB",
"kBBBBo############pppppppc#########################################oBBBB",
"vBBBBB############pppppppp#########################################BBBBB",
"dBBBBB############pppppppp######################bcccccca###########BBBBB",
".yBBBB############cpppppppa####################bppppppg############BBBBy",
".wBBBB############apppppppg####################pppppppb############BBBBw",
".dBBBBi############gpppppppb###################ppppppp############iBBBBu",
"..kBBBB#############cpppppppp################bpppppppp############BBBBk.",
"..vBBBBj#############ppppppppa##############cppppppppa###########jBBBBv.",
"...BBBBB#############bpppppppppb##########gppppppppp#############BBBBB..",
"...BBBBB##############cpppppppppppbbaabcgppppppppppp#############BBBBB..",
"...yBBBBi##############bppppppppppppppppppppppppppp#############iBBBBy..",
"....yBBBBj##############apppppppppppppppppppppppp##############jBBBBy...",
"....uBBBBre###############pppppppppppppppppppppga#############erBBBBu...",
".....tBBBBB#################apppppppppppppppca################BBBBBt....",
"......BBBBBf##################acppppppppppba#################fBBBBB.....",
"......zBBBBr######################abbbaa#####################rBBBBz.....",
".......wBBBBB###############################################BBBBBw......",
"........BBBBBl#############################################lBBBBB.......",
"........zBBBBBl###########################################lBBBBBz.......",
".........uBBBBBB#########################################BBBBBBu........",
"..........hBBBBBrf#####################################frBBBBBh.........",
"...........hBBBBBBoe#################################eBBBBBBBh..........",
"............uBBBBBBrj###############################jrBBBBBBu...........",
".............zBBBBBBBi#############################iBBBBBBBz............",
"...............wBBBBBBBBj#######################jBBBBBBBBw..............",
"................zBBBBBBBBBi###################iBBBBBBBBBz...............",
"..................yBBBBBBBBBBBBojjfffffjjoBBBBBBBBBBBBt.................",
"...................uyBBBBBBBBBBBBBBBBBBBBBBBBBBBBBBByu..................",
".....................yBBBBBBBBBBBBBBBBBBBBBBBBBBBBBy....................",
"........................vkBBBBBBBBBBBBBBBBBBBBBkv.......................",
"..........................uwyBBBBBBBBBBBBBBBywu........................."
};
