/* XPM */
static char *ecell3[] = {
/* width height num_colors chars_per_pixel */
"    32    32       25            1",
/* colors */
"  s NONE c NONE",
"# c #ffcc00",
"a c #ff9900",
"b c #ff6600",
"c c #ff3300",
"d c #cccccc",
"e c #cccc00",
"f c #cc9900",
"g c #cc3300",
"h c #999999",
"i c #999900",
"j c #996600",
"k c #666600",
"l c #663300",
"m c #dd0000",
"n c #220000",
"o c #110000",
"p c #dddddd",
"q c #bbbbbb",
"r c #aaaaaa",
"s c #777777",
"t c #444444",
"u c #222222",
"v c #111111",
"w c #000000",
/* pixels */
"             dswwwts            ",
"           rvwwwwwwwwvr         ",
"          wwwwwwwwwwwwwq        ",
"        wwwwl########lwwwu      ",
"      dwww#############nwwwd    ",
"     www#################owwh   ",
"    dwwk##################wwwd  ",
"    wwk####################kww  ",
"   ww########bmmmmmm########wwp ",
"   ww########mmmmmmmmm######eww ",
"  ww######mmmmm####bmmmm######ww",
" rww######mmmg######mmmmb#####ww",
" vwl######mmm########mmmm#####ww",
"dww######mmmc#########mmm#####ww",
"sww#####ammm##########bmm#####nw",
"www#####mmmmmmmmmmmmmmmmm#####iw",
"www#####mmmmmmmmmmmmmmmmma####fw",
"www#####mmmmmmmmmmmmmmmmma####fw",
"tww#####mmmm##################jw",
"sww#####cmmm##################nw",
" ww######mmmm#########mmm#####ww",
" vwl#####ammm########mmmm#####ww",
" rww######mmma######mmmma#####ww",
"  qwn######mmmmmmmmmmmm######nwq",
"   ww#######cmmmmmmmmma#####eww ",
"   uwo#########abb##########ww  ",
"    www####################www  ",
"    dwwk##################wwwd  ",
"     hwwwe##############ewww    ",
"      dwww#############nwwwd    ",
"        pwwwwwniffjnwwwww       ",
"          wwwwwwwwwwwwwq        "
};
