/* XPM */
static char * icon_start_xpm[] = {
"32 32 13 1",
" 	c None",
".	c #3A71C4",
"+	c #8BA6C6",
"@	c #B4B4B4",
"#	c #FFFFFF",
"$	c #8BA6C5",
"%	c #8CA6C5",
"&	c #4979C1",
"*	c #3B72C3",
"=	c #3A71C3",
"-	c #8EA8C7",
";	c #B0B2B4",
">	c #3F74C5",
"                                ",
"                                ",
"                                ",
"                                ",
"                                ",
"                                ",
"                                ",
"                                ",
"                  ....          ",
"               ..........       ",
"              ..++++++++...     ",
"            ..++++++++++++..    ",
"            .++++++++++++++..   ",
"           @@@++++++++++++++.   ",
"          .@##@++++++$%$$$++&*  ",
"          .@##@@+++++++++++++.  ",
"         ..@@@##@++++++++++++.. ",
" @@@@@@@@@@@@@##@@+++++++++++.. ",
" @############@@##@++++++++++.= ",
" @############@@##@++++++++++.. ",
" @@@@@@@@@@@@@##@@+++++++++++.. ",
"          .@@@##@+++++++++-++.; ",
"          .@##@@+++++++++++++.  ",
"          .@##@@+++++$+++$++..  ",
"           @@@++++++++++++++.   ",
"           ..++++++++++++++..   ",
"            ..++++++++++++..    ",
"             ...++%++++$>.      ",
"               ..........       ",
"                  ....          ",
"                                ",
"                                "};
