/* XPM */
static char * icon_palette_xpm[] = {
"32 32 5 1",
" 	c None",
".	c #3A71C4",
"+	c #8BA6C6",
"@	c #B4B4B4",
"#	c #FFFFFF",
"                                ",
"                                ",
"                                ",
"                                ",
"                                ",
"                                ",
"   ........  ........           ",
"   .++++++.  .++++++.           ",
"   .++++++.  .++++++.           ",
"   .++@@++.  .++++++.           ",
"   .+@##@+.  .++++++.           ",
"   .+@##@+.  .++++++.           ",
"   .+@##@+.  .++++++.           ",
"   ..@##@..  ........           ",
"     @##@                       ",
"     @##@@@                     ",
"     @##@##@ ........  ........ ",
" @@@ @##@##@@@++++++.  .++++++. ",
" ###@@##@##@##@+++++.  .++++++. ",
" ####@##@##@##@@++++.  .++++++. ",
" @###@##@##@##@#@+++.  .++++++. ",
"  @##@########@##@++.  .++++++. ",
"  @##############@++.  .++++++. ",
"  @##############@...  ........ ",
"   @#############@              ",
"   @#############@              ",
"    @###########@               ",
"    @###########@               ",
"     @#########@                ",
"     @#########@                ",
"                                ",
"                                "};
