/* XPM */
static char * icon_stop_xpm[] = {
"32 32 3 1",
" 	c None",
".	c #3A71C4",
"+	c #8BA6C6",
"                                ",
"                                ",
"                                ",
"                                ",
"                                ",
"                                ",
"                                ",
"                                ",
"                                ",
"                                ",
"      ...              ...      ",
"      .++.            .++.      ",
"      .+++.          .+++.      ",
"       .+++.        .+++.       ",
"        .+++.      .+++.        ",
"         .+++.    .+++.         ",
"          .+++.  .+++.          ",
"           .+++..+++.           ",
"            .++++++.            ",
"             .++++.             ",
"             .++++.             ",
"            .++++++.            ",
"           .+++..+++.           ",
"          .+++.  .+++.          ",
"         .+++.    .+++.         ",
"        .+++.      .+++.        ",
"       .+++.        .+++.       ",
"      .+++.          .+++.      ",
"      .++.            .++.      ",
"      ...              ...      ",
"                                ",
"                                "};
