/* XPM */
static char * icon_message_xpm[] = {
"32 32 5 1",
" 	c None",
".	c #B4B4B4",
"+	c #3A71C4",
"@	c #FFFFFF",
"#	c #8BA6C6",
"                                ",
"                                ",
"                                ",
"                                ",
"                                ",
"         ..++++++++++++         ",
"        .@@.###########++       ",
"        .@@..############+      ",
"       +#..@@.############+     ",
"  .........@@..########..##+    ",
"  .@@@@@@@@..@@.######.@@.##+   ",
"  .@@@@@@@@..@@.#####..@@.###+  ",
"  .........@@..#####.@@..####+  ",
"     +###..@@.#####..@@........ ",
"     +##.@@..#####.@@..@@@@@@@. ",
"     +##.@@.######.@@..@@@@@@@. ",
"     +###..########..@@........ ",
"     +##############.@@..####+  ",
"      +##############..@@.##+   ",
"       +##############.@@.++    ",
"        +##############..+      ",
"         +###########+++        ",
"        +##########++           ",
"        +#####+++++             ",
"       +#####+                  ",
"      +####++                   ",
"     +###++                     ",
"    +##++                       ",
"    +++                         ",
"                                ",
"                                ",
"                                "};
