/* XPM */
static char * icon_entry_xpm[] = {
"32 32 3 1",
" 	c None",
".	c #FFFFFF",
"+	c #3A71C4",
"                                ",
"                             .  ",
"                            ... ",
"                           ...  ",
"             ++++++       ...   ",
"          ++++++++++     ...    ",
"         +++            ...     ",
"        ++             ...      ",
"       ++             ...       ",
"      ++           . ...        ",
"     +++           ....         ",
"     ++           ....          ",
"     +            .....   +     ",
"    ++           ....     ++    ",
"    ++           ..       ++    ",
"    ++                    ++    ",
"    ++                    ++    ",
"    ++                    ++    ",
"    ++                    ++    ",
"     +                   ++     ",
"     ++                  ++     ",
"     ++                  ++     ",
"      ++                ++      ",
"       ++              ++       ",
"        ++            ++        ",
"         +++       ++++         ",
"          ++++++++++++          ",
"             ++++++             ",
"                                ",
"                                ",
"                                ",
"                                "};
