/* XPM */
static char * icon_entry_xpm[] = {
"32 32 6 1",
" 	c None",
".	c #B4B4B4",
"+	c #FFFFFF",
"@	c #3A71C4",
"#	c #7C9CC5",
"$	c #8BA6C6",
"                             .  ",
"                            .+. ",
"                           .+++.",
"                          .+++. ",
"             @@@@@@      .+++.  ",
"          @@@@@@@@@@    .+++.   ",
"         @@@#$$..$$$$$ .+++.    ",
"        @@#$$$.++.$$$$.+++.     ",
"       @@$$$$$.++..$$.+++.      ",
"      @@$$$$$$$......+++.       ",
"     @@#$$$$$$$.....+++.$$      ",
"     @@$$$$$$$.++..+++.$$$      ",
"     @#$$$$$$$.++..++..$$$@     ",
"    @@$$$$$$$$$.........$$@@    ",
"    @@$$$$$$$$$..........$@@    ",
"    @@$$$$$$$$.++..++..++.@@    ",
"    @@$$$$$$$$.++..++..++.@@    ",
"    @@$$$$$$$$$..$$..$$..$@@    ",
"    @@$$$$$$$$$$$$$$$$$$$$@@    ",
"     @#$$$$$$$$$$$$$$$$$$#@     ",
"     @@$$$$$$$$$$$$$$$$$$@@     ",
"     @@#$$$$$$$$$$$$$$$$#@@     ",
"      @@$$$$$$$$$$$$$$$$@@      ",
"       @@$$$$$$$$$$$$$$@@       ",
"        @@#$$$$$$$$$$#@@        ",
"         @@@#$$$$$$#@@@         ",
"          @@@@@@@@@@@@          ",
"             @@@@@@             ",
"                                ",
"                                ",
"                                ",
"                                "};
