/* XPM */
static char * icon_down_xpm[] = {
"16 16 3 1",
" 	c None",
".	c #B4B4B4",
"+	c #FFFFFF",
"                ",
"                ",
"                ",
"  ............  ",
"  .++++++++++.  ",
"  .++++++++++.  ",
"  .++++++++++.  ",
"   .++++++++.   ",
"    .++++++.    ",
"     .++++.     ",
"      .++.      ",
"       ..       ",
"                ",
".               ",
"                ",
"                "};
