/* XPM */
static char *purple[] = {
/* width height num_colors chars_per_pixel */
"    17    17        2            1",
/* colors */
". c #f7f1f1",
"# c #ac07f8",
/* pixels */
"#################",
"#################",
"####.........####",
"####...##########",
"####...##########",
"####...##########",
"####.......######",
"####....#...#####",
"####...###...####",
"##########...####",
"##########...####",
"####...###...####",
"####...###...####",
"#####...#...#####",
"######.....######",
"#################",
"#################"
};
